# xmcd
#
# Track frame offsets: 
#        150
#        40851
#        65304
#        87340
#        116040
#        173443
#        200425
#
# Disc length: 3159 seconds
#
# Revision: 1
# Processed by: cddbd v1.5.2PL0 Copyright (c) Steve Scherf et al.
# Submitted via: ExactAudioCopy v0.99pb4
#
DISCID=540c5507
DTITLE=Gold Sparkle Trio with Ken Vandermark - Brooklyn Cantos
DYEAR=2004
DGENRE=Jazz
TTITLE0=People's Republic
TTITLE1='Burg Girl
TTITLE2=Marcella Variations #1
TTITLE3=Game Over
TTITLE4=Architexture #12 (718)
TTITLE5=Autumn Ever
TTITLE6=Carpet Quarterbagger
EXTD=YEAR: 2004
EXTT0=
EXTT1=
EXTT2=
EXTT3=
EXTT4=
EXTT5=
EXTT6=
PLAYORDER=
